<svg width="595.28px" height="841.89px" viewBox="0 0 595.28 841.89" xmlns="http://www.w3.org/2000/svg" xmlns:xlink="http://www.w3.org/1999/xlink">
<rect width="100%" height="100%" fill="white"/>
<text x="208.73619140625" y="55.3125" style="font:bold 25px LiberationSans,Helvetica,Arial,sans-serif;white-space:pre;letter-spacing:0px" fill="black">Emma </text>
<text x="290.71861328125" y="55.3125" style="font:bold 25px LiberationSans,Helvetica,Arial,sans-serif;white-space:pre;letter-spacing:0px" fill="black">Stafford</text>
<path d="M 30,84.375 L 565.28,84.375 C 565.28,84.375,565.28,84.375,565.28,84.375 L 565.28,111 C 565.28,111,565.28,111,565.28,111 L 30,111 C 30,111,30,111,30,111 L 30,84.375 C 30,84.375,30,84.375,30,84.375 Z" fill="#828282" />
<text x="35" y="102.5625" style="font:bold 15px LiberationSans,Helvetica,Arial,sans-serif;white-space:pre;letter-spacing:0px" fill="white">Personal </text>
<text x="102.529296875" y="102.5625" style="font:bold 15px LiberationSans,Helvetica,Arial,sans-serif;white-space:pre;letter-spacing:0px" fill="white">details</text>
<text x="40" y="131.125" style="font:bold 10px LiberationSans,Helvetica,Arial,sans-serif;white-space:pre;letter-spacing:0px" fill="black">Email </text>
<text x="69.4580078125" y="131.125" style="font:bold 10px LiberationSans,Helvetica,Arial,sans-serif;white-space:pre;letter-spacing:0px" fill="black">address</text>
<text x="190" y="131.125" style="font:normal 10px LiberationSans,Helvetica,Arial,sans-serif;white-space:pre;letter-spacing:0px" fill="black">emma</text>
<text x="217.783203125" y="131.125" style="font:normal 10px LiberationSans,Helvetica,Arial,sans-serif;white-space:pre;letter-spacing:0px" fill="black">.</text>
<text x="220.5615234375" y="131.125" style="font:normal 10px LiberationSans,Helvetica,Arial,sans-serif;white-space:pre;letter-spacing:0px" fill="black">stafford</text>
<text x="253.9111328125" y="131.125" style="font:normal 10px LiberationSans,Helvetica,Arial,sans-serif;white-space:pre;letter-spacing:0px" fill="black">@</text>
<text x="264.0625" y="131.125" style="font:normal 10px LiberationSans,Helvetica,Arial,sans-serif;white-space:pre;letter-spacing:0px" fill="black">gmail</text>
<text x="287.958984375" y="131.125" style="font:normal 10px LiberationSans,Helvetica,Arial,sans-serif;white-space:pre;letter-spacing:0px" fill="black">.</text>
<text x="290.7373046875" y="131.125" style="font:normal 10px LiberationSans,Helvetica,Arial,sans-serif;white-space:pre;letter-spacing:0px" fill="black">com</text>
<text x="40" y="154.875" style="font:bold 10px LiberationSans,Helvetica,Arial,sans-serif;white-space:pre;letter-spacing:0px" fill="black">Phone </text>
<text x="73.3349609375" y="154.875" style="font:bold 10px LiberationSans,Helvetica,Arial,sans-serif;white-space:pre;letter-spacing:0px" fill="black">number</text>
<text x="190" y="154.875" style="font:normal 10px LiberationSans,Helvetica,Arial,sans-serif;white-space:pre;letter-spacing:0px" fill="black">(</text>
<text x="193.330078125" y="154.875" style="font:normal 10px LiberationSans,Helvetica,Arial,sans-serif;white-space:pre;letter-spacing:0px" fill="black">121</text>
<text x="210.0146484375" y="154.875" style="font:normal 10px LiberationSans,Helvetica,Arial,sans-serif;white-space:pre;letter-spacing:0px" fill="black">) </text>
<text x="216.123046875" y="154.875" style="font:normal 10px LiberationSans,Helvetica,Arial,sans-serif;white-space:pre;letter-spacing:0px" fill="black">262</text>
<text x="232.8076171875" y="154.875" style="font:normal 10px LiberationSans,Helvetica,Arial,sans-serif;white-space:pre;letter-spacing:0px" fill="black">-</text>
<text x="236.1376953125" y="154.875" style="font:normal 10px LiberationSans,Helvetica,Arial,sans-serif;white-space:pre;letter-spacing:0px" fill="black">3434</text>
<text x="40" y="178.625" style="font:bold 10px LiberationSans,Helvetica,Arial,sans-serif;white-space:pre;letter-spacing:0px" fill="black">Address</text>
<text x="190" y="178.625" style="font:normal 10px LiberationSans,Helvetica,Arial,sans-serif;white-space:pre;letter-spacing:0px" fill="black">Los </text>
<text x="208.9013671875" y="178.625" style="font:normal 10px LiberationSans,Helvetica,Arial,sans-serif;white-space:pre;letter-spacing:0px" fill="black">Angeles</text>
<text x="245.0390625" y="178.625" style="font:normal 10px LiberationSans,Helvetica,Arial,sans-serif;white-space:pre;letter-spacing:0px" fill="black">, </text>
<text x="250.595703125" y="178.625" style="font:normal 10px LiberationSans,Helvetica,Arial,sans-serif;white-space:pre;letter-spacing:0px" fill="black">CA</text>
<path d="M 30,111 L 30.5,111 C 30.5,111,30.5,111,30.5,111 L 30.5,192.25 C 30.5,192.25,30.5,192.25,30.5,192.25 L 30,192.25 C 30,192.25,30,192.25,30,192.25 L 30,111 C 30,111,30,111,30,111 Z" fill="#828282" />
<path d="M 564.78,111 L 565.28,111 C 565.28,111,565.28,111,565.28,111 L 565.28,192.25 C 565.28,192.25,565.28,192.25,565.28,192.25 L 564.78,192.25 C 564.78,192.25,564.78,192.25,564.78,192.25 L 564.78,111 C 564.78,111,564.78,111,564.78,111 Z" fill="#828282" />
<path d="M 30,192.25 L 565.28,192.25 C 565.28,192.25,565.28,192.25,565.28,192.25 L 565.28,192.75 C 565.28,192.75,565.28,192.75,565.28,192.75 L 30,192.75 C 30,192.75,30,192.75,30,192.75 L 30,192.25 C 30,192.25,30,192.25,30,192.25 Z" fill="#828282" />
<path d="M 30,212.25 L 565.28,212.25 C 565.28,212.25,565.28,212.25,565.28,212.25 L 565.28,238.875 C 565.28,238.875,565.28,238.875,565.28,238.875 L 30,238.875 C 30,238.875,30,238.875,30,238.875 L 30,212.25 C 30,212.25,30,212.25,30,212.25 Z" fill="#828282" />
<text x="35" y="230.4375" style="font:bold 15px LiberationSans,Helvetica,Arial,sans-serif;white-space:pre;letter-spacing:0px" fill="white">Resume </text>
<text x="97.52685546875" y="230.4375" style="font:bold 15px LiberationSans,Helvetica,Arial,sans-serif;white-space:pre;letter-spacing:0px" fill="white">Objective</text>
<text x="40" y="259" style="font:normal 10px LiberationSans,Helvetica,Arial,sans-serif;white-space:pre;letter-spacing:0px" fill="black">BA </text>
<text x="56.1181640625" y="259" style="font:normal 10px LiberationSans,Helvetica,Arial,sans-serif;white-space:pre;letter-spacing:0px" fill="black">student </text>
<text x="91.69921875" y="259" style="font:normal 10px LiberationSans,Helvetica,Arial,sans-serif;white-space:pre;letter-spacing:0px" fill="black">in </text>
<text x="102.2607421875" y="259" style="font:normal 10px LiberationSans,Helvetica,Arial,sans-serif;white-space:pre;letter-spacing:0px" fill="black">English </text>
<text x="137.8369140625" y="259" style="font:normal 10px LiberationSans,Helvetica,Arial,sans-serif;white-space:pre;letter-spacing:0px" fill="black">at </text>
<text x="148.955078125" y="259" style="font:normal 10px LiberationSans,Helvetica,Arial,sans-serif;white-space:pre;letter-spacing:0px" fill="black">UCLA</text>
<text x="175.6298828125" y="259" style="font:normal 10px LiberationSans,Helvetica,Arial,sans-serif;white-space:pre;letter-spacing:0px" fill="black">, </text>
<text x="181.1865234375" y="259" style="font:normal 10px LiberationSans,Helvetica,Arial,sans-serif;white-space:pre;letter-spacing:0px" fill="black">seeking </text>
<text x="218.4326171875" y="259" style="font:normal 10px LiberationSans,Helvetica,Arial,sans-serif;white-space:pre;letter-spacing:0px" fill="black">to </text>
<text x="229.55078125" y="259" style="font:normal 10px LiberationSans,Helvetica,Arial,sans-serif;white-space:pre;letter-spacing:0px" fill="black">leverage </text>
<text x="270.6884765625" y="259" style="font:normal 10px LiberationSans,Helvetica,Arial,sans-serif;white-space:pre;letter-spacing:0px" fill="black">strong </text>
<text x="301.259765625" y="259" style="font:normal 10px LiberationSans,Helvetica,Arial,sans-serif;white-space:pre;letter-spacing:0px" fill="black">writing </text>
<text x="332.9345703125" y="259" style="font:normal 10px LiberationSans,Helvetica,Arial,sans-serif;white-space:pre;letter-spacing:0px" fill="black">and </text>
<text x="352.3974609375" y="259" style="font:normal 10px LiberationSans,Helvetica,Arial,sans-serif;white-space:pre;letter-spacing:0px" fill="black">research </text>
<text x="394.08203125" y="259" style="font:normal 10px LiberationSans,Helvetica,Arial,sans-serif;white-space:pre;letter-spacing:0px" fill="black">skills </text>
<text x="418.525390625" y="259" style="font:normal 10px LiberationSans,Helvetica,Arial,sans-serif;white-space:pre;letter-spacing:0px" fill="black">and </text>
<text x="437.98828125" y="259" style="font:normal 10px LiberationSans,Helvetica,Arial,sans-serif;white-space:pre;letter-spacing:0px" fill="black">knowledge </text>
<text x="488.5791015625" y="259" style="font:normal 10px LiberationSans,Helvetica,Arial,sans-serif;white-space:pre;letter-spacing:0px" fill="black">of </text>
<text x="40" y="272.75" style="font:normal 10px LiberationSans,Helvetica,Arial,sans-serif;white-space:pre;letter-spacing:0px" fill="black">contemporary </text>
<text x="103.916015625" y="272.75" style="font:normal 10px LiberationSans,Helvetica,Arial,sans-serif;white-space:pre;letter-spacing:0px" fill="black">literature </text>
<text x="145.6005859375" y="272.75" style="font:normal 10px LiberationSans,Helvetica,Arial,sans-serif;white-space:pre;letter-spacing:0px" fill="black">to </text>
<text x="156.71875" y="272.75" style="font:normal 10px LiberationSans,Helvetica,Arial,sans-serif;white-space:pre;letter-spacing:0px" fill="black">join </text>
<text x="175.0634765625" y="272.75" style="font:normal 10px LiberationSans,Helvetica,Arial,sans-serif;white-space:pre;letter-spacing:0px" fill="black">the </text>
<text x="191.7431640625" y="272.75" style="font:normal 10px LiberationSans,Helvetica,Arial,sans-serif;white-space:pre;letter-spacing:0px" fill="black">Random </text>
<text x="232.3193359375" y="272.75" style="font:normal 10px LiberationSans,Helvetica,Arial,sans-serif;white-space:pre;letter-spacing:0px" fill="black">House </text>
<text x="264.00390625" y="272.75" style="font:normal 10px LiberationSans,Helvetica,Arial,sans-serif;white-space:pre;letter-spacing:0px" fill="black">Publishing </text>
<text x="312.9248046875" y="272.75" style="font:normal 10px LiberationSans,Helvetica,Arial,sans-serif;white-space:pre;letter-spacing:0px" fill="black">team </text>
<text x="337.9345703125" y="272.75" style="font:normal 10px LiberationSans,Helvetica,Arial,sans-serif;white-space:pre;letter-spacing:0px" fill="black">as </text>
<text x="351.2744140625" y="272.75" style="font:normal 10px LiberationSans,Helvetica,Arial,sans-serif;white-space:pre;letter-spacing:0px" fill="black">an </text>
<text x="365.17578125" y="272.75" style="font:normal 10px LiberationSans,Helvetica,Arial,sans-serif;white-space:pre;letter-spacing:0px" fill="black">Editorial </text>
<text x="404.08203125" y="272.75" style="font:normal 10px LiberationSans,Helvetica,Arial,sans-serif;white-space:pre;letter-spacing:0px" fill="black">Assistant</text>
<text x="444.6533203125" y="272.75" style="font:normal 10px LiberationSans,Helvetica,Arial,sans-serif;white-space:pre;letter-spacing:0px" fill="black">. </text>
<text x="450.2099609375" y="272.75" style="font:normal 10px LiberationSans,Helvetica,Arial,sans-serif;white-space:pre;letter-spacing:0px" fill="black">President's </text>
<text x="502.1435546875" y="272.75" style="font:normal 10px LiberationSans,Helvetica,Arial,sans-serif;white-space:pre;letter-spacing:0px" fill="black">Honor </text>
<text x="532.158203125" y="272.75" style="font:normal 10px LiberationSans,Helvetica,Arial,sans-serif;white-space:pre;letter-spacing:0px" fill="black">Roll </text>
<text x="40" y="286.5" style="font:normal 10px LiberationSans,Helvetica,Arial,sans-serif;white-space:pre;letter-spacing:0px" fill="black">recipient </text>
<text x="80.576171875" y="286.5" style="font:normal 10px LiberationSans,Helvetica,Arial,sans-serif;white-space:pre;letter-spacing:0px" fill="black">every </text>
<text x="107.8076171875" y="286.5" style="font:normal 10px LiberationSans,Helvetica,Arial,sans-serif;white-space:pre;letter-spacing:0px" fill="black">semester</text>
<text x="148.9306640625" y="286.5" style="font:normal 10px LiberationSans,Helvetica,Arial,sans-serif;white-space:pre;letter-spacing:0px" fill="black">, </text>
<text x="154.4873046875" y="286.5" style="font:normal 10px LiberationSans,Helvetica,Arial,sans-serif;white-space:pre;letter-spacing:0px" fill="black">have </text>
<text x="178.9501953125" y="286.5" style="font:normal 10px LiberationSans,Helvetica,Arial,sans-serif;white-space:pre;letter-spacing:0px" fill="black">earned </text>
<text x="212.8662109375" y="286.5" style="font:normal 10px LiberationSans,Helvetica,Arial,sans-serif;white-space:pre;letter-spacing:0px" fill="black">multiple </text>
<text x="250.1025390625" y="286.5" style="font:normal 10px LiberationSans,Helvetica,Arial,sans-serif;white-space:pre;letter-spacing:0px" fill="black">merit</text>
<text x="272.32421875" y="286.5" style="font:normal 10px LiberationSans,Helvetica,Arial,sans-serif;white-space:pre;letter-spacing:0px" fill="black">-</text>
<text x="275.654296875" y="286.5" style="font:normal 10px LiberationSans,Helvetica,Arial,sans-serif;white-space:pre;letter-spacing:0px" fill="black">based </text>
<text x="305.6787109375" y="286.5" style="font:normal 10px LiberationSans,Helvetica,Arial,sans-serif;white-space:pre;letter-spacing:0px" fill="black">scholarships</text>
<text x="361.259765625" y="286.5" style="font:normal 10px LiberationSans,Helvetica,Arial,sans-serif;white-space:pre;letter-spacing:0px" fill="black">, </text>
<text x="366.81640625" y="286.5" style="font:normal 10px LiberationSans,Helvetica,Arial,sans-serif;white-space:pre;letter-spacing:0px" fill="black">and </text>
<text x="386.279296875" y="286.5" style="font:normal 10px LiberationSans,Helvetica,Arial,sans-serif;white-space:pre;letter-spacing:0px" fill="black">have </text>
<text x="410.7421875" y="286.5" style="font:normal 10px LiberationSans,Helvetica,Arial,sans-serif;white-space:pre;letter-spacing:0px" fill="black">experience </text>
<text x="462.44140625" y="286.5" style="font:normal 10px LiberationSans,Helvetica,Arial,sans-serif;white-space:pre;letter-spacing:0px" fill="black">studying </text>
<text x="502.4658203125" y="286.5" style="font:normal 10px LiberationSans,Helvetica,Arial,sans-serif;white-space:pre;letter-spacing:0px" fill="black">abroad</text>
<text x="533.603515625" y="286.5" style="font:normal 10px LiberationSans,Helvetica,Arial,sans-serif;white-space:pre;letter-spacing:0px" fill="black">.</text>
<path d="M 30,238.875 L 30.5,238.875 C 30.5,238.875,30.5,238.875,30.5,238.875 L 30.5,300.125 C 30.5,300.125,30.5,300.125,30.5,300.125 L 30,300.125 C 30,300.125,30,300.125,30,300.125 L 30,238.875 C 30,238.875,30,238.875,30,238.875 Z" fill="#828282" />
<path d="M 564.78,238.875 L 565.28,238.875 C 565.28,238.875,565.28,238.875,565.28,238.875 L 565.28,300.125 C 565.28,300.125,565.28,300.125,565.28,300.125 L 564.78,300.125 C 564.78,300.125,564.78,300.125,564.78,300.125 L 564.78,238.875 C 564.78,238.875,564.78,238.875,564.78,238.875 Z" fill="#828282" />
<path d="M 30,300.125 L 565.28,300.125 C 565.28,300.125,565.28,300.125,565.28,300.125 L 565.28,300.625 C 565.28,300.625,565.28,300.625,565.28,300.625 L 30,300.625 C 30,300.625,30,300.625,30,300.625 L 30,300.125 C 30,300.125,30,300.125,30,300.125 Z" fill="#828282" />
<path d="M 30,320.125 L 565.28,320.125 C 565.28,320.125,565.28,320.125,565.28,320.125 L 565.28,346.75 C 565.28,346.75,565.28,346.75,565.28,346.75 L 30,346.75 C 30,346.75,30,346.75,30,346.75 L 30,320.125 C 30,320.125,30,320.125,30,320.125 Z" fill="#828282" />
<text x="35" y="338.3125" style="font:bold 15px LiberationSans,Helvetica,Arial,sans-serif;white-space:pre;letter-spacing:0px" fill="white">Education</text>
<text x="190" y="366.875" style="font:bold 10px LiberationSans,Helvetica,Arial,sans-serif;white-space:pre;letter-spacing:0px" fill="black">Bachelor </text>
<text x="235.5712890625" y="366.875" style="font:bold 10px LiberationSans,Helvetica,Arial,sans-serif;white-space:pre;letter-spacing:0px" fill="black">of </text>
<text x="247.7880859375" y="366.875" style="font:bold 10px LiberationSans,Helvetica,Arial,sans-serif;white-space:pre;letter-spacing:0px" fill="black">Arts</text>
<text x="267.79296875" y="366.875" style="font:bold 10px LiberationSans,Helvetica,Arial,sans-serif;white-space:pre;letter-spacing:0px" fill="black">, </text>
<text x="273.349609375" y="366.875" style="font:bold 10px LiberationSans,Helvetica,Arial,sans-serif;white-space:pre;letter-spacing:0px" fill="black">English</text>
<text x="190" y="380.625" style="font:normal 10px LiberationSans,Helvetica,Arial,sans-serif;white-space:pre;letter-spacing:0px" fill="#828282">UCLA</text>
<text x="216.6748046875" y="380.625" style="font:normal 10px LiberationSans,Helvetica,Arial,sans-serif;white-space:pre;letter-spacing:0px" fill="#828282">, </text>
<text x="222.2314453125" y="380.625" style="font:normal 10px LiberationSans,Helvetica,Arial,sans-serif;white-space:pre;letter-spacing:0px" fill="#828282">Los </text>
<text x="241.1328125" y="380.625" style="font:normal 10px LiberationSans,Helvetica,Arial,sans-serif;white-space:pre;letter-spacing:0px" fill="#828282">Angeles</text>
<text x="277.2705078125" y="380.625" style="font:normal 10px LiberationSans,Helvetica,Arial,sans-serif;white-space:pre;letter-spacing:0px" fill="#828282">, </text>
<text x="282.8271484375" y="380.625" style="font:normal 10px LiberationSans,Helvetica,Arial,sans-serif;white-space:pre;letter-spacing:0px" fill="#828282">CA</text>
<text x="190" y="394.375" style="font:normal 10px LiberationSans,Helvetica,Arial,sans-serif;white-space:pre;letter-spacing:0px" fill="black">Expected </text>
<text x="234.47265625" y="394.375" style="font:normal 10px LiberationSans,Helvetica,Arial,sans-serif;white-space:pre;letter-spacing:0px" fill="black">Graduation </text>
<text x="286.728515625" y="394.375" style="font:normal 10px LiberationSans,Helvetica,Arial,sans-serif;white-space:pre;letter-spacing:0px" fill="black">Date</text>
<text x="307.8515625" y="394.375" style="font:normal 10px LiberationSans,Helvetica,Arial,sans-serif;white-space:pre;letter-spacing:0px" fill="black">: </text>
<text x="313.408203125" y="394.375" style="font:normal 10px LiberationSans,Helvetica,Arial,sans-serif;white-space:pre;letter-spacing:0px" fill="black">May </text>
<text x="335.078125" y="394.375" style="font:normal 10px LiberationSans,Helvetica,Arial,sans-serif;white-space:pre;letter-spacing:0px" fill="black">2022</text>
<text x="210" y="408.125" style="font:normal 10px LiberationSans,Helvetica,Arial,sans-serif;white-space:pre;letter-spacing:0px" fill="black">GPA</text>
<text x="231.1181640625" y="408.125" style="font:normal 10px LiberationSans,Helvetica,Arial,sans-serif;white-space:pre;letter-spacing:0px" fill="black">: </text>
<text x="236.6748046875" y="408.125" style="font:normal 10px LiberationSans,Helvetica,Arial,sans-serif;white-space:pre;letter-spacing:0px" fill="black">3.9</text>
<circle cx="200" cy="406.125" r="2" fill="black"/>
<text x="210" y="421.875" style="font:normal 10px LiberationSans,Helvetica,Arial,sans-serif;white-space:pre;letter-spacing:0px" fill="black">President's </text>
<text x="261.93359375" y="421.875" style="font:normal 10px LiberationSans,Helvetica,Arial,sans-serif;white-space:pre;letter-spacing:0px" fill="black">Honor </text>
<text x="291.9482421875" y="421.875" style="font:normal 10px LiberationSans,Helvetica,Arial,sans-serif;white-space:pre;letter-spacing:0px" fill="black">Roll </text>
<text x="311.953125" y="421.875" style="font:normal 10px LiberationSans,Helvetica,Arial,sans-serif;white-space:pre;letter-spacing:0px" fill="black">every </text>
<text x="339.1845703125" y="421.875" style="font:normal 10px LiberationSans,Helvetica,Arial,sans-serif;white-space:pre;letter-spacing:0px" fill="black">semester</text>
<circle cx="200" cy="419.875" r="2" fill="black"/>
<text x="210" y="435.625" style="font:normal 10px LiberationSans,Helvetica,Arial,sans-serif;white-space:pre;letter-spacing:0px" fill="black">Studied </text>
<text x="246.6943359375" y="435.625" style="font:normal 10px LiberationSans,Helvetica,Arial,sans-serif;white-space:pre;letter-spacing:0px" fill="black">abroad </text>
<text x="280.6103515625" y="435.625" style="font:normal 10px LiberationSans,Helvetica,Arial,sans-serif;white-space:pre;letter-spacing:0px" fill="black">in </text>
<text x="291.171875" y="435.625" style="font:normal 10px LiberationSans,Helvetica,Arial,sans-serif;white-space:pre;letter-spacing:0px" fill="black">London</text>
<text x="324.541015625" y="435.625" style="font:normal 10px LiberationSans,Helvetica,Arial,sans-serif;white-space:pre;letter-spacing:0px" fill="black">, </text>
<text x="330.09765625" y="435.625" style="font:normal 10px LiberationSans,Helvetica,Arial,sans-serif;white-space:pre;letter-spacing:0px" fill="black">Fall </text>
<text x="348.9892578125" y="435.625" style="font:normal 10px LiberationSans,Helvetica,Arial,sans-serif;white-space:pre;letter-spacing:0px" fill="black">2020</text>
<circle cx="200" cy="433.625" r="2" fill="black"/>
<text x="210" y="449.375" style="font:normal 10px LiberationSans,Helvetica,Arial,sans-serif;white-space:pre;letter-spacing:0px" fill="black">Won </text>
<text x="233.33984375" y="449.375" style="font:normal 10px LiberationSans,Helvetica,Arial,sans-serif;white-space:pre;letter-spacing:0px" fill="black">3 </text>
<text x="241.6796875" y="449.375" style="font:normal 10px LiberationSans,Helvetica,Arial,sans-serif;white-space:pre;letter-spacing:0px" fill="black">merit</text>
<text x="263.9013671875" y="449.375" style="font:normal 10px LiberationSans,Helvetica,Arial,sans-serif;white-space:pre;letter-spacing:0px" fill="black">-</text>
<text x="267.2314453125" y="449.375" style="font:normal 10px LiberationSans,Helvetica,Arial,sans-serif;white-space:pre;letter-spacing:0px" fill="black">based </text>
<text x="297.255859375" y="449.375" style="font:normal 10px LiberationSans,Helvetica,Arial,sans-serif;white-space:pre;letter-spacing:0px" fill="black">scholarships</text>
<circle cx="200" cy="447.375" r="2" fill="black"/>
<path d="M 30,346.75 L 30.5,346.75 C 30.5,346.75,30.5,346.75,30.5,346.75 L 30.5,463 C 30.5,463,30.5,463,30.5,463 L 30,463 C 30,463,30,463,30,463 L 30,346.75 C 30,346.75,30,346.75,30,346.75 Z" fill="#828282" />
<path d="M 564.78,346.75 L 565.28,346.75 C 565.28,346.75,565.28,346.75,565.28,346.75 L 565.28,463 C 565.28,463,565.28,463,565.28,463 L 564.78,463 C 564.78,463,564.78,463,564.78,463 L 564.78,346.75 C 564.78,346.75,564.78,346.75,564.78,346.75 Z" fill="#828282" />
<path d="M 30,463 L 565.28,463 C 565.28,463,565.28,463,565.28,463 L 565.28,463.5 C 565.28,463.5,565.28,463.5,565.28,463.5 L 30,463.5 C 30,463.5,30,463.5,30,463.5 L 30,463 C 30,463,30,463,30,463 Z" fill="#828282" />
<path d="M 30,483 L 565.28,483 C 565.28,483,565.28,483,565.28,483 L 565.28,509.625 C 565.28,509.625,565.28,509.625,565.28,509.625 L 30,509.625 C 30,509.625,30,509.625,30,509.625 L 30,483 C 30,483,30,483,30,483 Z" fill="#828282" />
<text x="35" y="501.1875" style="font:bold 15px LiberationSans,Helvetica,Arial,sans-serif;white-space:pre;letter-spacing:0px" fill="white">Work </text>
<text x="76.66748046875" y="501.1875" style="font:bold 15px LiberationSans,Helvetica,Arial,sans-serif;white-space:pre;letter-spacing:0px" fill="white">Experience</text>
<text x="40" y="529.75" style="font:bold 10px LiberationSans,Helvetica,Arial,sans-serif;white-space:pre;letter-spacing:0px" fill="black">May </text>
<text x="62.2314453125" y="529.75" style="font:bold 10px LiberationSans,Helvetica,Arial,sans-serif;white-space:pre;letter-spacing:0px" fill="black">2020 </text>
<text x="87.255859375" y="529.75" style="font:bold 10px LiberationSans,Helvetica,Arial,sans-serif;white-space:pre;letter-spacing:0px" fill="black">- </text>
<text x="93.3642578125" y="529.75" style="font:bold 10px LiberationSans,Helvetica,Arial,sans-serif;white-space:pre;letter-spacing:0px" fill="black">Aug </text>
<text x="115.5810546875" y="529.75" style="font:bold 10px LiberationSans,Helvetica,Arial,sans-serif;white-space:pre;letter-spacing:0px" fill="black">2020</text>
<text x="190" y="529.75" style="font:bold 10px LiberationSans,Helvetica,Arial,sans-serif;white-space:pre;letter-spacing:0px" fill="black">Editorial </text>
<text x="232.783203125" y="529.75" style="font:bold 10px LiberationSans,Helvetica,Arial,sans-serif;white-space:pre;letter-spacing:0px" fill="black">Intern</text>
<text x="190" y="543.5" style="font:normal 10px LiberationSans,Helvetica,Arial,sans-serif;white-space:pre;letter-spacing:0px" fill="#828282">Bookworm </text>
<text x="240.0146484375" y="543.5" style="font:normal 10px LiberationSans,Helvetica,Arial,sans-serif;white-space:pre;letter-spacing:0px" fill="#828282">Publishing</text>
<text x="286.1572265625" y="543.5" style="font:normal 10px LiberationSans,Helvetica,Arial,sans-serif;white-space:pre;letter-spacing:0px" fill="#828282">, </text>
<text x="291.7138671875" y="543.5" style="font:normal 10px LiberationSans,Helvetica,Arial,sans-serif;white-space:pre;letter-spacing:0px" fill="#828282">Los </text>
<text x="310.615234375" y="543.5" style="font:normal 10px LiberationSans,Helvetica,Arial,sans-serif;white-space:pre;letter-spacing:0px" fill="#828282">Angles</text>
<text x="341.19140625" y="543.5" style="font:normal 10px LiberationSans,Helvetica,Arial,sans-serif;white-space:pre;letter-spacing:0px" fill="#828282">, </text>
<text x="346.748046875" y="543.5" style="font:normal 10px LiberationSans,Helvetica,Arial,sans-serif;white-space:pre;letter-spacing:0px" fill="#828282">CA</text>
<text x="210" y="557.25" style="font:normal 10px LiberationSans,Helvetica,Arial,sans-serif;white-space:pre;letter-spacing:0px" fill="black">Shadowed </text>
<text x="260.0390625" y="557.25" style="font:normal 10px LiberationSans,Helvetica,Arial,sans-serif;white-space:pre;letter-spacing:0px" fill="black">experienced </text>
<text x="317.2998046875" y="557.25" style="font:normal 10px LiberationSans,Helvetica,Arial,sans-serif;white-space:pre;letter-spacing:0px" fill="black">editor </text>
<text x="345.0927734375" y="557.25" style="font:normal 10px LiberationSans,Helvetica,Arial,sans-serif;white-space:pre;letter-spacing:0px" fill="black">to </text>
<text x="356.2109375" y="557.25" style="font:normal 10px LiberationSans,Helvetica,Arial,sans-serif;white-space:pre;letter-spacing:0px" fill="black">learn </text>
<text x="381.2255859375" y="557.25" style="font:normal 10px LiberationSans,Helvetica,Arial,sans-serif;white-space:pre;letter-spacing:0px" fill="black">the </text>
<text x="397.9052734375" y="557.25" style="font:normal 10px LiberationSans,Helvetica,Arial,sans-serif;white-space:pre;letter-spacing:0px" fill="black">entire </text>
<text x="425.6982421875" y="557.25" style="font:normal 10px LiberationSans,Helvetica,Arial,sans-serif;white-space:pre;letter-spacing:0px" fill="black">editing </text>
<text x="457.9443359375" y="557.25" style="font:normal 10px LiberationSans,Helvetica,Arial,sans-serif;white-space:pre;letter-spacing:0px" fill="black">process</text>
<circle cx="200" cy="555.25" r="2" fill="black"/>
<text x="210" y="571" style="font:normal 10px LiberationSans,Helvetica,Arial,sans-serif;white-space:pre;letter-spacing:0px" fill="black">Marked </text>
<text x="246.123046875" y="571" style="font:normal 10px LiberationSans,Helvetica,Arial,sans-serif;white-space:pre;letter-spacing:0px" fill="black">up </text>
<text x="260.0244140625" y="571" style="font:normal 10px LiberationSans,Helvetica,Arial,sans-serif;white-space:pre;letter-spacing:0px" fill="black">real </text>
<text x="279.4775390625" y="571" style="font:normal 10px LiberationSans,Helvetica,Arial,sans-serif;white-space:pre;letter-spacing:0px" fill="black">book </text>
<text x="303.9404296875" y="571" style="font:normal 10px LiberationSans,Helvetica,Arial,sans-serif;white-space:pre;letter-spacing:0px" fill="black">chapters </text>
<text x="345.0732421875" y="571" style="font:normal 10px LiberationSans,Helvetica,Arial,sans-serif;white-space:pre;letter-spacing:0px" fill="black">for </text>
<text x="359.521484375" y="571" style="font:normal 10px LiberationSans,Helvetica,Arial,sans-serif;white-space:pre;letter-spacing:0px" fill="black">review </text>
<text x="391.1962890625" y="571" style="font:normal 10px LiberationSans,Helvetica,Arial,sans-serif;white-space:pre;letter-spacing:0px" fill="black">by </text>
<text x="404.5361328125" y="571" style="font:normal 10px LiberationSans,Helvetica,Arial,sans-serif;white-space:pre;letter-spacing:0px" fill="black">mentor</text>
<circle cx="200" cy="569" r="2" fill="black"/>
<text x="210" y="584.75" style="font:normal 10px LiberationSans,Helvetica,Arial,sans-serif;white-space:pre;letter-spacing:0px" fill="black">Assisted </text>
<text x="250.5712890625" y="584.75" style="font:normal 10px LiberationSans,Helvetica,Arial,sans-serif;white-space:pre;letter-spacing:0px" fill="black">with </text>
<text x="271.1328125" y="584.75" style="font:normal 10px LiberationSans,Helvetica,Arial,sans-serif;white-space:pre;letter-spacing:0px" fill="black">proofreading </text>
<text x="330.0634765625" y="584.75" style="font:normal 10px LiberationSans,Helvetica,Arial,sans-serif;white-space:pre;letter-spacing:0px" fill="black">and </text>
<text x="349.5263671875" y="584.75" style="font:normal 10px LiberationSans,Helvetica,Arial,sans-serif;white-space:pre;letter-spacing:0px" fill="black">basic </text>
<text x="375.6494140625" y="584.75" style="font:normal 10px LiberationSans,Helvetica,Arial,sans-serif;white-space:pre;letter-spacing:0px" fill="black">formatting</text>
<circle cx="200" cy="582.75" r="2" fill="black"/>
<path d="M 30,509.625 L 30.5,509.625 C 30.5,509.625,30.5,509.625,30.5,509.625 L 30.5,598.375 C 30.5,598.375,30.5,598.375,30.5,598.375 L 30,598.375 C 30,598.375,30,598.375,30,598.375 L 30,509.625 C 30,509.625,30,509.625,30,509.625 Z" fill="#828282" />
<path d="M 564.78,509.625 L 565.28,509.625 C 565.28,509.625,565.28,509.625,565.28,509.625 L 565.28,598.375 C 565.28,598.375,565.28,598.375,565.28,598.375 L 564.78,598.375 C 564.78,598.375,564.78,598.375,564.78,598.375 L 564.78,509.625 C 564.78,509.625,564.78,509.625,564.78,509.625 Z" fill="#828282" />
<path d="M 30,598.375 L 565.28,598.375 C 565.28,598.375,565.28,598.375,565.28,598.375 L 565.28,598.875 C 565.28,598.875,565.28,598.875,565.28,598.875 L 30,598.875 C 30,598.875,30,598.875,30,598.875 L 30,598.375 C 30,598.375,30,598.375,30,598.375 Z" fill="#828282" />
<path d="M 30,618.375 L 565.28,618.375 C 565.28,618.375,565.28,618.375,565.28,618.375 L 565.28,645 C 565.28,645,565.28,645,565.28,645 L 30,645 C 30,645,30,645,30,645 L 30,618.375 C 30,618.375,30,618.375,30,618.375 Z" fill="#828282" />
<text x="35" y="636.5625" style="font:bold 15px LiberationSans,Helvetica,Arial,sans-serif;white-space:pre;letter-spacing:0px" fill="white">Extracurricular </text>
<text x="145.888671875" y="636.5625" style="font:bold 15px LiberationSans,Helvetica,Arial,sans-serif;white-space:pre;letter-spacing:0px" fill="white">Activities</text>
<text x="40" y="665.125" style="font:bold 10px LiberationSans,Helvetica,Arial,sans-serif;white-space:pre;letter-spacing:0px" fill="black">Aug </text>
<text x="62.216796875" y="665.125" style="font:bold 10px LiberationSans,Helvetica,Arial,sans-serif;white-space:pre;letter-spacing:0px" fill="black">2019 </text>
<text x="87.2412109375" y="665.125" style="font:bold 10px LiberationSans,Helvetica,Arial,sans-serif;white-space:pre;letter-spacing:0px" fill="black">- </text>
<text x="93.349609375" y="665.125" style="font:bold 10px LiberationSans,Helvetica,Arial,sans-serif;white-space:pre;letter-spacing:0px" fill="black">Present</text>
<text x="190" y="665.125" style="font:bold 10px LiberationSans,Helvetica,Arial,sans-serif;white-space:pre;letter-spacing:0px" fill="black">Editor </text>
<text x="221.6650390625" y="665.125" style="font:bold 10px LiberationSans,Helvetica,Arial,sans-serif;white-space:pre;letter-spacing:0px" fill="black">of </text>
<text x="233.8818359375" y="665.125" style="font:bold 10px LiberationSans,Helvetica,Arial,sans-serif;white-space:pre;letter-spacing:0px" fill="black">Student </text>
<text x="273.876953125" y="665.125" style="font:bold 10px LiberationSans,Helvetica,Arial,sans-serif;white-space:pre;letter-spacing:0px" fill="black">Newspaper</text>
<text x="190" y="678.875" style="font:normal 10px LiberationSans,Helvetica,Arial,sans-serif;white-space:pre;letter-spacing:0px" fill="#828282">UCLA </text>
<text x="219.453125" y="678.875" style="font:normal 10px LiberationSans,Helvetica,Arial,sans-serif;white-space:pre;letter-spacing:0px" fill="#828282">Weekly</text>
<text x="252.236328125" y="678.875" style="font:normal 10px LiberationSans,Helvetica,Arial,sans-serif;white-space:pre;letter-spacing:0px" fill="#828282">, </text>
<text x="257.79296875" y="678.875" style="font:normal 10px LiberationSans,Helvetica,Arial,sans-serif;white-space:pre;letter-spacing:0px" fill="#828282">Los </text>
<text x="276.6943359375" y="678.875" style="font:normal 10px LiberationSans,Helvetica,Arial,sans-serif;white-space:pre;letter-spacing:0px" fill="#828282">Angeles</text>
<text x="312.83203125" y="678.875" style="font:normal 10px LiberationSans,Helvetica,Arial,sans-serif;white-space:pre;letter-spacing:0px" fill="#828282">, </text>
<text x="318.388671875" y="678.875" style="font:normal 10px LiberationSans,Helvetica,Arial,sans-serif;white-space:pre;letter-spacing:0px" fill="#828282">CA</text>
<text x="210" y="692.625" style="font:normal 10px LiberationSans,Helvetica,Arial,sans-serif;white-space:pre;letter-spacing:0px" fill="black">Edit </text>
<text x="230.009765625" y="692.625" style="font:normal 10px LiberationSans,Helvetica,Arial,sans-serif;white-space:pre;letter-spacing:0px" fill="black">and </text>
<text x="249.47265625" y="692.625" style="font:normal 10px LiberationSans,Helvetica,Arial,sans-serif;white-space:pre;letter-spacing:0px" fill="black">format </text>
<text x="280.5908203125" y="692.625" style="font:normal 10px LiberationSans,Helvetica,Arial,sans-serif;white-space:pre;letter-spacing:0px" fill="black">the </text>
<text x="297.2705078125" y="692.625" style="font:normal 10px LiberationSans,Helvetica,Arial,sans-serif;white-space:pre;letter-spacing:0px" fill="black">weekly </text>
<text x="330.615234375" y="692.625" style="font:normal 10px LiberationSans,Helvetica,Arial,sans-serif;white-space:pre;letter-spacing:0px" fill="black">student </text>
<text x="366.1962890625" y="692.625" style="font:normal 10px LiberationSans,Helvetica,Arial,sans-serif;white-space:pre;letter-spacing:0px" fill="black">newspaper</text>
<circle cx="200" cy="690.625" r="2" fill="black"/>
<text x="210" y="706.375" style="font:normal 10px LiberationSans,Helvetica,Arial,sans-serif;white-space:pre;letter-spacing:0px" fill="black">Contribute </text>
<text x="258.916015625" y="706.375" style="font:normal 10px LiberationSans,Helvetica,Arial,sans-serif;white-space:pre;letter-spacing:0px" fill="black">articles </text>
<text x="293.369140625" y="706.375" style="font:normal 10px LiberationSans,Helvetica,Arial,sans-serif;white-space:pre;letter-spacing:0px" fill="black">on </text>
<text x="307.2705078125" y="706.375" style="font:normal 10px LiberationSans,Helvetica,Arial,sans-serif;white-space:pre;letter-spacing:0px" fill="black">occasion</text>
<circle cx="200" cy="704.375" r="2" fill="black"/>
<text x="210" y="720.125" style="font:normal 10px LiberationSans,Helvetica,Arial,sans-serif;white-space:pre;letter-spacing:0px" fill="black">Assign </text>
<text x="242.79296875" y="720.125" style="font:normal 10px LiberationSans,Helvetica,Arial,sans-serif;white-space:pre;letter-spacing:0px" fill="black">and </text>
<text x="262.255859375" y="720.125" style="font:normal 10px LiberationSans,Helvetica,Arial,sans-serif;white-space:pre;letter-spacing:0px" fill="black">collect </text>
<text x="293.37890625" y="720.125" style="font:normal 10px LiberationSans,Helvetica,Arial,sans-serif;white-space:pre;letter-spacing:0px" fill="black">all </text>
<text x="306.162109375" y="720.125" style="font:normal 10px LiberationSans,Helvetica,Arial,sans-serif;white-space:pre;letter-spacing:0px" fill="black">articles </text>
<text x="340.615234375" y="720.125" style="font:normal 10px LiberationSans,Helvetica,Arial,sans-serif;white-space:pre;letter-spacing:0px" fill="black">from </text>
<text x="363.3935546875" y="720.125" style="font:normal 10px LiberationSans,Helvetica,Arial,sans-serif;white-space:pre;letter-spacing:0px" fill="black">staff </text>
<text x="385.068359375" y="720.125" style="font:normal 10px LiberationSans,Helvetica,Arial,sans-serif;white-space:pre;letter-spacing:0px" fill="black">writers</text>
<circle cx="200" cy="718.125" r="2" fill="black"/>
<text x="40" y="743.875" style="font:bold 10px LiberationSans,Helvetica,Arial,sans-serif;white-space:pre;letter-spacing:0px" fill="black">Aug </text>
<text x="62.216796875" y="743.875" style="font:bold 10px LiberationSans,Helvetica,Arial,sans-serif;white-space:pre;letter-spacing:0px" fill="black">2020 </text>
<text x="87.2412109375" y="743.875" style="font:bold 10px LiberationSans,Helvetica,Arial,sans-serif;white-space:pre;letter-spacing:0px" fill="black">- </text>
<text x="93.349609375" y="743.875" style="font:bold 10px LiberationSans,Helvetica,Arial,sans-serif;white-space:pre;letter-spacing:0px" fill="black">Present</text>
<text x="190" y="743.875" style="font:bold 10px LiberationSans,Helvetica,Arial,sans-serif;white-space:pre;letter-spacing:0px" fill="black">Intramural </text>
<text x="241.6796875" y="743.875" style="font:bold 10px LiberationSans,Helvetica,Arial,sans-serif;white-space:pre;letter-spacing:0px" fill="black">Water </text>
<text x="272.2412109375" y="743.875" style="font:bold 10px LiberationSans,Helvetica,Arial,sans-serif;white-space:pre;letter-spacing:0px" fill="black">Polo </text>
<text x="296.6845703125" y="743.875" style="font:bold 10px LiberationSans,Helvetica,Arial,sans-serif;white-space:pre;letter-spacing:0px" fill="black">Team </text>
<text x="325.5859375" y="743.875" style="font:bold 10px LiberationSans,Helvetica,Arial,sans-serif;white-space:pre;letter-spacing:0px" fill="black">Captain</text>
<text x="190" y="757.625" style="font:normal 10px LiberationSans,Helvetica,Arial,sans-serif;white-space:pre;letter-spacing:0px" fill="#828282">UCLA</text>
<text x="216.6748046875" y="757.625" style="font:normal 10px LiberationSans,Helvetica,Arial,sans-serif;white-space:pre;letter-spacing:0px" fill="#828282">, </text>
<text x="222.2314453125" y="757.625" style="font:normal 10px LiberationSans,Helvetica,Arial,sans-serif;white-space:pre;letter-spacing:0px" fill="#828282">Los </text>
<text x="241.1328125" y="757.625" style="font:normal 10px LiberationSans,Helvetica,Arial,sans-serif;white-space:pre;letter-spacing:0px" fill="#828282">Angeles</text>
<text x="277.2705078125" y="757.625" style="font:normal 10px LiberationSans,Helvetica,Arial,sans-serif;white-space:pre;letter-spacing:0px" fill="#828282">, </text>
<text x="282.8271484375" y="757.625" style="font:normal 10px LiberationSans,Helvetica,Arial,sans-serif;white-space:pre;letter-spacing:0px" fill="#828282">CA</text>
<text x="210" y="771.375" style="font:normal 10px LiberationSans,Helvetica,Arial,sans-serif;white-space:pre;letter-spacing:0px" fill="black">Organize </text>
<text x="253.3544921875" y="771.375" style="font:normal 10px LiberationSans,Helvetica,Arial,sans-serif;white-space:pre;letter-spacing:0px" fill="black">and </text>
<text x="272.8173828125" y="771.375" style="font:normal 10px LiberationSans,Helvetica,Arial,sans-serif;white-space:pre;letter-spacing:0px" fill="black">hold </text>
<text x="294.501953125" y="771.375" style="font:normal 10px LiberationSans,Helvetica,Arial,sans-serif;white-space:pre;letter-spacing:0px" fill="black">annual </text>
<text x="327.3095703125" y="771.375" style="font:normal 10px LiberationSans,Helvetica,Arial,sans-serif;white-space:pre;letter-spacing:0px" fill="black">team </text>
<text x="352.3193359375" y="771.375" style="font:normal 10px LiberationSans,Helvetica,Arial,sans-serif;white-space:pre;letter-spacing:0px" fill="black">tryouts</text>
<circle cx="200" cy="769.375" r="2" fill="black"/>
<text x="210" y="785.125" style="font:normal 10px LiberationSans,Helvetica,Arial,sans-serif;white-space:pre;letter-spacing:0px" fill="black">Plan </text>
<text x="232.79296875" y="785.125" style="font:normal 10px LiberationSans,Helvetica,Arial,sans-serif;white-space:pre;letter-spacing:0px" fill="black">practice </text>
<text x="270.5859375" y="785.125" style="font:normal 10px LiberationSans,Helvetica,Arial,sans-serif;white-space:pre;letter-spacing:0px" fill="black">schedule </text>
<text x="313.3935546875" y="785.125" style="font:normal 10px LiberationSans,Helvetica,Arial,sans-serif;white-space:pre;letter-spacing:0px" fill="black">and </text>
<text x="332.8564453125" y="785.125" style="font:normal 10px LiberationSans,Helvetica,Arial,sans-serif;white-space:pre;letter-spacing:0px" fill="black">games</text>
<circle cx="200" cy="783.125" r="2" fill="black"/>
<text x="210" y="798.875" style="font:normal 10px LiberationSans,Helvetica,Arial,sans-serif;white-space:pre;letter-spacing:0px" fill="black">Perform </text>
<text x="248.33984375" y="798.875" style="font:normal 10px LiberationSans,Helvetica,Arial,sans-serif;white-space:pre;letter-spacing:0px" fill="black">other </text>
<text x="273.9111328125" y="798.875" style="font:normal 10px LiberationSans,Helvetica,Arial,sans-serif;white-space:pre;letter-spacing:0px" fill="black">duties </text>
<text x="303.3740234375" y="798.875" style="font:normal 10px LiberationSans,Helvetica,Arial,sans-serif;white-space:pre;letter-spacing:0px" fill="black">as </text>
<text x="316.7138671875" y="798.875" style="font:normal 10px LiberationSans,Helvetica,Arial,sans-serif;white-space:pre;letter-spacing:0px" fill="black">assigned </text>
<text x="359.521484375" y="798.875" style="font:normal 10px LiberationSans,Helvetica,Arial,sans-serif;white-space:pre;letter-spacing:0px" fill="black">by </text>
<text x="372.861328125" y="798.875" style="font:normal 10px LiberationSans,Helvetica,Arial,sans-serif;white-space:pre;letter-spacing:0px" fill="black">coach</text>
<circle cx="200" cy="796.875" r="2" fill="black"/>
<path d="M 30,645 L 30.5,645 C 30.5,645,30.5,645,30.5,645 L 30.5,811.89 C 30.5,811.89,30.5,811.89,30.5,811.89 L 30,811.89 C 30,811.89,30,811.89,30,811.89 L 30,645 C 30,645,30,645,30,645 Z" fill="#828282" />
<path d="M 564.78,645 L 565.28,645 C 565.28,645,565.28,645,565.28,645 L 565.28,811.89 C 565.28,811.89,565.28,811.89,565.28,811.89 L 564.78,811.89 C 564.78,811.89,564.78,811.89,564.78,811.89 L 564.78,645 C 564.78,645,564.78,645,564.78,645 Z" fill="#828282" />
<path d="M 30,812.5 L 565.28,812.5 C 565.28,812.5,565.28,812.5,565.28,812.5 L 565.28,812.5 C 565.28,812.5,565.28,812.5,565.28,812.5 L 30,812.5 C 30,812.5,30,812.5,30,812.5 L 30,812.5 C 30,812.5,30,812.5,30,812.5 Z" fill="#828282" />
</svg>